<?xml version="1.0" encoding="UTF-8"?><svg id="main-logo" xmlns="http://www.w3.org/2000/svg" viewBox="0 0 100 100"><path d="m65.1025,65.2324c-8.0601,1.72-16.79-.59-23.01-6.9-6.6001-6.7-8.3501-16.2293-5.8701-24.6593,8.0601-1.7101,16.51.6593,22.72,6.9694,6.5901,6.6899,8.6401,16.1699,6.1602,24.59Z" style="fill:none; stroke:#fff; stroke-miterlimit:10; stroke-width:4px;"/><path d="m65.1054,65.2298c1.9101-.4556,7.3586-2.1494,10.7886-5.3132,3.0023-2.7693,4.324-5.7188,5.009-7.2912,3.4181-7.8455,1.621-15.2479,1.3156-16.4325-2.5712-9.9739-10.6881-14.9826-14.0327-17.0466-2.5701-1.586-10.7684-6.1788-21.8517-5.0225-1.9466.2031-10.3473,1.2475-18.3842,7.683-2.7054,2.1664-11.6222,9.9502-13.3547,23.3722-1.8778,14.5469,6.0761,24.927,8.0102,27.3015,2.8786,3.5338,9.849,10.7266,21.1978,12.7437,1.6925.3009,10.751,1.7784,20.8228-2.8106,2.4128-1.0993,12.4719-6.0043,17.7667-17.494.5945-1.2902,2.9312-6.5741,3.1784-13.9418.2737-8.1523-3.0451-15.1395-4.5631-18.3601" style="fill:none; stroke:#fff; stroke-miterlimit:10; stroke-width:4px;"/><path d="m35.7321,33.7781c-1.6632.477-4.8858,1.8163-7.4064,3.4838-1.2884.8524-4.5785,3.2111-7.1896,7.4724-3.3862,5.5264-3.5136,10.8883-3.5685,13.1466-.0673,2.7624.1004,5.6323.7549,8.0538" style="fill:none; stroke:#fff; stroke-miterlimit:10; stroke-width:4px;"/></svg>