<?xml version="1.0" encoding="UTF-8"?>
<svg id="main-logo" data-name="Layer 1" xmlns="http://www.w3.org/2000/svg" viewBox="0 0 100 100">
  <path d="m65.1,65.23c-8.06,1.72-16.79-.59-23.01-6.9-6.6-6.7-8.35-16.23-5.87-24.66,8.06-1.71,16.51.66,22.72,6.97,6.59,6.69,8.64,16.17,6.16,24.59Z" style="fill: none; stroke: #fff; stroke-miterlimit: 10; stroke-width: 2px;"/>
  <path d="m65.11,65.23c1.91-.46,7.36-2.15,10.79-5.31,3-2.77,4.32-5.72,5.01-7.29,3.42-7.85,1.62-15.25,1.32-16.43-2.57-9.97-10.69-14.98-14.03-17.05-2.57-1.59-10.77-6.18-21.85-5.02-1.95.2-10.35,1.25-18.38,7.68-2.71,2.17-11.62,9.95-13.35,23.37-1.88,14.55,6.08,24.93,8.01,27.3,2.88,3.53,9.85,10.73,21.2,12.74,1.69.3,10.75,1.78,20.82-2.81,2.41-1.1,12.47-6,17.77-17.49.59-1.29,2.93-6.57,3.18-13.94.27-8.15-3.05-15.14-4.56-18.36" style="fill: none; stroke: #fff; stroke-miterlimit: 10; stroke-width: 2px;"/>
  <path d="m35.73,33.78c-1.66.48-4.89,1.82-7.41,3.48-1.29.85-4.58,3.21-7.19,7.47-3.39,5.53-3.51,10.89-3.57,13.15-.07,2.76.1,5.63.75,8.05" style="fill: none; stroke: #fff; stroke-miterlimit: 10; stroke-width: 2px;"/>
</svg>